<svg xmlns="http://www.w3.org/2000/svg" viewBox="0 0 128 128" role="img" aria-label="Docker MCP Server icon">
  <rect width="128" height="128" rx="24" fill="#0b1f33"/>
  <rect x="18" y="58" width="14" height="14" rx="2" fill="#2496ed"/>
  <rect x="34" y="58" width="14" height="14" rx="2" fill="#2496ed"/>
  <rect x="50" y="58" width="14" height="14" rx="2" fill="#2496ed"/>
  <rect x="66" y="58" width="14" height="14" rx="2" fill="#2496ed"/>
  <rect x="34" y="42" width="14" height="14" rx="2" fill="#2496ed"/>
  <rect x="50" y="42" width="14" height="14" rx="2" fill="#2496ed"/>
  <rect x="66" y="42" width="14" height="14" rx="2" fill="#2496ed"/>
  <path d="M18 76h70c8 0 14-6 14-14 0-4-2-8-5-11-1 6-6 10-12 10H18z" fill="#2496ed"/>
  <circle cx="97" cy="37" r="13" fill="#d9f0ff"/>
  <path d="M97 29v16M89 37h16" stroke="#0b1f33" stroke-width="5" stroke-linecap="round"/>
  <text x="64" y="105" text-anchor="middle" font-family="Segoe UI, Arial, sans-serif" font-size="18" font-weight="700" fill="#ffffff">MCP</text>
</svg>